<svg xmlns="http://www.w3.org/2000/svg" viewBox="0 0 512 512" width="512" height="512" role="img" aria-label="OpenBridge">
  <title>OpenBridge</title>
  <defs>
    <filter id="soft" x="-60%" y="-60%" width="220%" height="220%"><feGaussianBlur stdDeviation="12"/></filter>
    <filter id="soft2" x="-60%" y="-60%" width="220%" height="220%"><feGaussianBlur stdDeviation="16"/></filter>
    <linearGradient id="tsheen" x1="0" y1="0" x2="0.7" y2="0.9"><stop offset="0" stop-color="#fff" stop-opacity="0.07"/><stop offset="0.45" stop-color="#fff" stop-opacity="0.02"/><stop offset="1" stop-color="#fff" stop-opacity="0"/></linearGradient>
    <linearGradient id="lg1" gradientUnits="userSpaceOnUse" x1="0" y1="282" x2="0" y2="414"><stop offset="0" stop-color="#8fb0e8"/><stop offset="0.5" stop-color="#4d74bd"/><stop offset="1" stop-color="#1b2f60"/></linearGradient>
    <linearGradient id="lg2" gradientUnits="userSpaceOnUse" x1="152" y1="302" x2="224" y2="158"><stop offset="0" stop-color="#ad379f"/><stop offset="0.5" stop-color="#fa474e"/><stop offset="1" stop-color="#fed867"/></linearGradient>
    <linearGradient id="lg3" gradientUnits="userSpaceOnUse" x1="360" y1="302" x2="288" y2="158"><stop offset="0" stop-color="#69bb63"/><stop offset="0.5" stop-color="#0b82cf"/><stop offset="1" stop-color="#10a9a4"/></linearGradient>
    <linearGradient id="lg4" gradientUnits="userSpaceOnUse" x1="152" y1="302" x2="224" y2="158"><stop offset="0" stop-color="#fff" stop-opacity="0.55"/><stop offset="1" stop-color="#fff" stop-opacity="0.05"/></linearGradient>
    <linearGradient id="lg5" gradientUnits="userSpaceOnUse" x1="360" y1="302" x2="288" y2="158"><stop offset="0" stop-color="#fff" stop-opacity="0.55"/><stop offset="1" stop-color="#fff" stop-opacity="0.05"/></linearGradient>
    <linearGradient id="lg6" gradientUnits="userSpaceOnUse" x1="0" y1="0" x2="512" y2="512"><stop offset="0" stop-color="#101c38"/><stop offset="1" stop-color="#090e1c"/></linearGradient>
    <radialGradient id="rg7" cx="0.5" cy="0.26" r="0.8"><stop offset="0" stop-color="#2f6fed" stop-opacity="0.22"/><stop offset="1" stop-color="#2f6fed" stop-opacity="0"/></radialGradient>
  </defs>
  <rect width="512" height="512" rx="116" fill="url(#lg6)"/><rect width="512" height="512" rx="116" fill="url(#rg7)"/><g transform="translate(0,14)" fill="#000" opacity="0.36" filter="url(#soft2)"><path d="M 135.2 285.1 L 207.5 149.1 L 241.1 166.9 L 168.8 302.9 Z" fill-rule="evenodd"/><path d="M 343.2 302.9 L 270.9 166.9 L 304.5 149.1 L 376.8 285.1 Z" fill-rule="evenodd"/><path d="M 40 285 L 158 285 L 158 317 L 40 317 Z" fill-rule="evenodd"/><path d="M 354 285 L 472 285 L 472 317 L 354 317 Z" fill-rule="evenodd"/><path d="M 127 310 L 177 310 L 177 414 L 127 414 Z" fill-rule="evenodd"/><path d="M 335 310 L 385 310 L 385 414 L 335 414 Z" fill-rule="evenodd"/></g>
<path d="M 127 310 L 177 310 L 177 414 L 127 414 Z" fill="url(#lg1)"/>
<path d="M 335 310 L 385 310 L 385 414 L 335 414 Z" fill="url(#lg1)"/>
<path d="M 40 285 L 158 285 L 158 317 L 40 317 Z" fill="url(#lg1)"/>
<path d="M 354 285 L 472 285 L 472 317 L 354 317 Z" fill="url(#lg1)"/>
<path d="M 40 285 L 158 285 L 158 291 L 40 291 Z" fill="#fff" opacity="0.35"/>
<path d="M 354 285 L 472 285 L 472 291 L 354 291 Z" fill="#fff" opacity="0.35"/>
<path d="M 135.2 285.1 L 207.5 149.1 L 241.1 166.9 L 168.8 302.9 Z" fill="url(#lg2)"/>
<path d="M 343.2 302.9 L 270.9 166.9 L 304.5 149.1 L 376.8 285.1 Z" fill="url(#lg3)"/>
<path d="M 137.1 285.8 L 209.4 159.8 L 217.2 164.3 L 144.9 290.2 Z" fill="url(#lg4)"/>
<path d="M 367.1 290.2 L 294.8 164.3 L 302.6 159.8 L 374.9 285.8 Z" fill="url(#lg5)"/>
<circle cx="152" cy="294" r="17" fill="#22335e"/>
<circle cx="152" cy="294" r="8" fill="#9fc0f0"/>
<circle cx="360" cy="294" r="17" fill="#22335e"/>
<circle cx="360" cy="294" r="8" fill="#9fc0f0"/><rect width="512" height="512" rx="116" fill="url(#tsheen)"/><rect x="1" y="1" width="510" height="510" rx="115" fill="none" stroke="#ffffff" stroke-opacity="0.08" stroke-width="2"/>
</svg>
